<svg width="1920" height="927" viewBox="0 0 1920 927" fill="none" xmlns="http://www.w3.org/2000/svg">
<g clip-path="url(#clip0_5127_170343)">
<rect width="1920" height="927" fill="#F8F8FF"/>
<path d="M276.364 278.303C331.999 222.668 376.131 156.62 406.24 83.9305C417.621 56.4545 426.914 28.2328 434.072 -0.494246H-0.935441V435.635C27.2751 428.529 54.9936 419.361 81.9922 408.178C154.682 378.069 220.73 333.937 276.364 278.303Z" fill="white"/>
<path d="M1585.24 618.954C1595.51 696.96 1621.04 772.18 1660.38 840.318C1678.43 871.583 1699.23 901.076 1722.48 928.468L1934.46 928.468L1935.46 -6.53985C1916.42 1.94175 1897.8 11.4272 1879.68 21.889C1811.54 61.2285 1751.82 113.604 1703.92 176.024C1656.02 238.444 1620.89 309.687 1600.53 385.685C1580.16 461.684 1574.97 540.948 1585.24 618.954Z" fill="white"/>
</g>
<defs>
<clipPath id="clip0_5127_170343">
<rect width="1920" height="927" fill="white"/>
</clipPath>
</defs>
</svg>
