<svg width="1920" height="801" viewBox="0 0 1920 801" fill="none" xmlns="http://www.w3.org/2000/svg">
<g clip-path="url(#clip0_5127_170093)">
<rect width="1920" height="801" fill="white"/>
<path d="M2009.72 1173.5C1933.72 1153.14 1862.48 1118.01 1800.06 1070.11C1737.64 1022.21 1685.26 962.491 1645.92 894.353C1606.58 826.214 1581.05 750.995 1570.78 672.989C1560.51 594.983 1565.7 515.718 1586.07 439.72C1606.43 363.722 1641.57 292.479 1689.46 230.059C1737.36 167.638 1797.08 115.263 1865.22 75.9238C1933.36 36.5842 2008.58 11.0507 2086.58 0.781034C2164.59 -9.48864 2243.85 -4.29333 2319.85 16.0703L2009.72 1173.5Z" fill="#F4F4FF"/>
<path d="M277.3 -569.003C332.934 -513.368 377.066 -447.321 407.175 -374.631C437.284 -301.941 452.781 -224.032 452.781 -145.353C452.781 -66.6739 437.284 11.2347 407.175 83.9247C377.066 156.615 332.934 222.662 277.3 278.297C221.665 333.931 155.618 378.063 82.9276 408.172C10.2376 438.281 -67.671 453.778 -146.35 453.778C-225.029 453.778 -302.938 438.281 -375.628 408.172C-448.318 378.063 -514.366 333.931 -570 278.297L277.3 -569.003Z" fill="#F4F4FF"/>
</g>
<defs>
<clipPath id="clip0_5127_170093">
<rect width="1920" height="801" fill="white"/>
</clipPath>
</defs>
</svg>
