<svg width="1920" height="529" viewBox="0 0 1920 529" fill="none" xmlns="http://www.w3.org/2000/svg">
<g clip-path="url(#clip0_5127_170456)">
<rect width="1920" height="529" fill="#3D2D72"/>
<rect x="-887.945" y="720.117" width="801.779" height="1188.8" transform="rotate(-32.5858 -887.945 720.117)" fill="#463481" fill-opacity="0.4"/>
<rect width="384.591" height="1188.8" transform="matrix(-0.842866 0.538124 0.538124 0.842866 552.25 -598.984)" fill="#463481"/>
<rect width="507.23" height="1188.8" transform="matrix(-0.842866 0.538124 0.538124 0.842866 -510.977 -1021.8)" fill="#463481" fill-opacity="0.4"/>
<rect width="507.23" height="1188.8" transform="matrix(-0.842866 0.538124 0.538124 0.842866 2059.35 -968.617)" fill="#463481" fill-opacity="0.4"/>
<rect width="649.53" height="1188.8" transform="matrix(-0.842866 0.538124 0.538124 0.842866 1113.95 -1211.79)" fill="#463481" fill-opacity="0.4"/>
<rect x="402.57" y="153.102" width="597.633" height="1188.8" transform="rotate(-32.5858 402.57 153.102)" fill="#36295F" fill-opacity="0.32"/>
<rect width="597.633" height="1188.8" transform="matrix(-0.842866 0.538124 0.538124 0.842866 359.484 -1323.02)" fill="#36295F" fill-opacity="0.32"/>
<rect x="1682.39" y="773.266" width="801.779" height="1188.8" transform="rotate(-32.5858 1682.39 773.266)" fill="#36295F" fill-opacity="0.32"/>
<rect width="801.779" height="1188.8" transform="matrix(-0.842866 0.538124 0.538124 0.842866 384.203 98.9531)" fill="#36295F" fill-opacity="0.32"/>
<rect x="536.461" y="-228.594" width="441.831" height="1188.8" transform="rotate(-32.5858 536.461 -228.594)" fill="#36295F" fill-opacity="0.32"/>
<rect x="978.477" y="632.352" width="384.591" height="1188.8" transform="rotate(-32.5858 978.477 632.352)" fill="#36295F" fill-opacity="0.32"/>
<rect x="1176.3" y="109.797" width="441.831" height="1188.8" transform="rotate(-32.5858 1176.3 109.797)" fill="#36295F" fill-opacity="0.32"/>
<rect width="441.831" height="1188.8" transform="matrix(-0.842866 0.538124 0.538124 0.842866 -5.05469 -639.203)" fill="#36295F" fill-opacity="0.32"/>
<rect x="1041.81" y="-510.109" width="507.23" height="1188.8" transform="rotate(-32.5858 1041.81 -510.109)" fill="#36295F" fill-opacity="0.32"/>
</g>
<defs>
<clipPath id="clip0_5127_170456">
<rect width="1920" height="529" fill="white"/>
</clipPath>
</defs>
</svg>
