<svg width="25" height="25" viewBox="0 0 25 25" fill="none" xmlns="http://www.w3.org/2000/svg">
<g clip-path="url(#clip0_6851_130341)">
<path d="M18.4234 9.02084C15.6354 7.46145 11.1605 4.95743 4.2196 1.07106C3.75164 0.762013 3.21324 0.721513 2.74805 0.878966L14.6567 12.7876L18.4234 9.02084Z" fill="#32BBFF"/>
<path d="M2.74812 0.878906C2.66093 0.908438 2.57609 0.944063 2.49495 0.987094C1.98124 1.26497 1.60376 1.79967 1.60376 2.47594V23.0991C1.60376 23.7754 1.9812 24.3101 2.49495 24.5879C2.57595 24.6309 2.66075 24.6667 2.74784 24.6964L14.6567 12.7875L2.74812 0.878906Z" fill="#32BBFF"/>
<path d="M14.6567 12.7891L2.7478 24.6979C3.21313 24.8565 3.75154 24.8191 4.21963 24.5056C10.9508 20.7364 15.3752 18.262 18.1955 16.6894C18.2741 16.6452 18.351 16.6021 18.427 16.5594L14.6567 12.7891Z" fill="#32BBFF"/>
<path d="M1.60376 12.7891V23.1006C1.60376 23.7769 1.9812 24.3116 2.49495 24.5894C2.57595 24.6324 2.66075 24.6682 2.74784 24.6979L14.6567 12.7891H1.60376Z" fill="#2C9FD9"/>
<path d="M4.21984 1.07162C3.66414 0.704683 3.00882 0.715136 2.49512 0.987762L14.4762 12.9688L18.4236 9.0214C15.6356 7.46201 11.1607 4.95799 4.21984 1.07162Z" fill="#29CC5E"/>
<path d="M14.4762 12.6094L2.49512 24.5904C3.00887 24.863 3.66414 24.8787 4.21984 24.5066C10.951 20.7373 15.3755 18.263 18.1957 16.6903C18.2743 16.6462 18.3512 16.6031 18.4272 16.5604L14.4762 12.6094Z" fill="#D93F21"/>
<path d="M23.3961 12.787C23.3961 12.2156 23.1077 11.639 22.5363 11.3192C22.5363 11.3192 21.4676 10.7229 18.1918 8.89062L14.2954 12.787L18.1956 16.6873C21.4354 14.8682 22.5362 14.2548 22.5362 14.2548C23.1077 13.9351 23.3961 13.3584 23.3961 12.787Z" fill="#FFD500"/>
<path d="M22.5363 14.2569C23.1077 13.9371 23.3961 13.3605 23.3961 12.7891H14.2954L18.1956 16.6893C21.4355 14.8703 22.5363 14.2569 22.5363 14.2569Z" fill="#FFAA00"/>
</g>
<defs>
<clipPath id="clip0_6851_130341">
<rect width="24" height="24" fill="white" transform="translate(0.5 0.789062)"/>
</clipPath>
</defs>
</svg>
