<svg width="635" height="624" viewBox="0 0 635 624" fill="none" xmlns="http://www.w3.org/2000/svg">
<path d="M597.031 142.257L428.817 21.638C418.437 14.1953 406.265 9.6476 393.548 8.46132L316.444 1.26878C307.456 0.430405 298.391 1.28945 289.721 3.80116L105.368 57.209C81.715 64.0613 63.2047 82.5267 56.2951 106.163L9.47816 266.311C3.47339 286.852 6.91716 308.999 18.8755 326.746L154.052 527.362C163.125 540.829 176.485 550.832 191.961 555.749L356.913 608.156C385.656 617.288 417.044 607.538 435.556 583.729L617.868 349.234C628.558 335.484 633.902 318.326 632.909 300.939L626.958 196.667C625.718 174.94 614.717 154.939 597.031 142.257Z" fill="#FBFBFF"/>
<path d="M569.551 185.055L439.534 71.5268C429.906 63.1196 418.213 57.4271 405.656 55.0342L343.971 43.2785C335.095 41.5869 325.98 41.5812 317.101 43.2617L160.336 72.9352C136.14 77.5152 115.963 94.1433 106.845 117.018L56.7217 242.759C48.8048 262.619 50.124 284.971 60.3221 303.763L156.861 481.647C164.608 495.923 176.955 507.16 191.896 513.532L320.888 568.547C348.649 580.387 380.849 573.656 401.543 551.687L571.44 371.324C583.372 358.657 590.313 342.098 590.978 324.709L594.142 242.043C594.974 220.308 585.935 199.361 569.551 185.055Z" fill="#F6F6FF"/>
<path d="M486.167 139.11L356.058 83.6421C344.307 78.6325 331.435 76.8393 318.763 78.4465L269.518 84.6919C260.561 85.8278 251.899 88.6379 243.981 92.9758L129.679 155.6C108.082 167.432 94.0312 189.481 92.4273 214.054L85.4885 320.363C84.0948 341.714 92.2699 362.579 107.797 377.301L228.523 491.763C240.307 502.936 255.522 509.798 271.697 511.233L381.928 521.013C411.973 523.679 440.494 507.335 453.385 480.065L540.146 296.525C547.588 280.781 549.073 262.875 544.324 246.121L527.202 185.71C521.269 164.773 506.184 147.644 486.167 139.11Z" fill="#F2F2FF"/>
<path d="M423.775 277.577L402.435 242.229C395.854 231.328 386.499 222.367 375.325 216.26L369.251 212.941C361.362 208.629 352.734 205.833 343.816 204.698L308.681 200.225C284.253 197.115 259.93 206.705 244.197 225.65L235.88 235.666C222.159 252.188 216.53 273.972 220.53 295.072L229.735 343.64C232.755 359.577 241.069 374.027 253.328 384.648L264.399 394.241C287.129 413.935 319.706 417.426 346.094 402.996L397.515 374.875C412.373 366.749 423.769 353.499 429.58 337.593C436.833 317.741 434.698 295.671 423.775 277.577Z" fill="#ECECFF"/>
<path d="M348.792 240.064L323.196 235.444C312.604 233.533 301.695 234.466 291.582 238.15C284.44 240.752 277.85 244.669 272.151 249.7L258.79 261.495C243.579 274.923 236.286 295.193 239.455 315.234C242.216 332.697 252.622 348.018 267.837 357.023L291.055 370.763C302.712 377.662 316.357 380.421 329.779 378.593C354.675 375.204 374.835 356.686 380.325 332.168L387.792 298.821C390.381 287.261 388.681 275.154 383.009 264.753C375.928 251.769 363.347 242.69 348.792 240.064Z" fill="#E6E6FF"/>
</svg>
